# xmcd
#
# Track frame offsets: 
#        150
#        18943
#        36616
#        61163
#        79763
#        101821
#        122725
#        143528
#        164209
#        186096
#        203119
#        223095
#        244235
#        270338
#
# Disc length: 4013 seconds
#
# Revision: 0
# Processed by: cddbd v1.5.2PL0 Copyright (c) Steve Scherf et al.
# Submitted via: ExactAudioCopyFreeDBPlugin 1.0
#
DISCID=cc0fab0e
DTITLE=Eric Roberson - When Love Calls
DYEAR=2012
DGENRE=R&B
TTITLE0=When Love Calls
TTITLE1=One Time (feat. Jill Scott)
TTITLE2=4U
TTITLE3=Hesitation
TTITLE4=Newness
TTITLE5=The Moon
TTITLE6=Right or Wrong
TTITLE7=Softest Lips
TTITLE8=Weekend Getaway
TTITLE9=She
TTITLE10=Break it Down
TTITLE11=Be with You
TTITLE12=Head to Toe
TTITLE13=Woman
EXTD=
EXTT0=
EXTT1=
EXTT2=
EXTT3=
EXTT4=
EXTT5=
EXTT6=
EXTT7=
EXTT8=
EXTT9=
EXTT10=
EXTT11=
EXTT12=
EXTT13=
PLAYORDER=
